<svg fill="#2563EB" height="800" width="800" xmlns="http://www.w3.org/2000/svg" viewBox="0 0 208.752 208.752"><path d="M192.042 116.167a97.012 97.012 0 001.82-18.715c0-53.448-43.483-96.931-96.931-96.931S0 44.005 0 97.453s43.483 96.931 96.931 96.931a96.92 96.92 0 0020.42-2.171c9.687 9.876 23.167 16.018 38.06 16.018 29.413 0 53.342-23.929 53.342-53.342-.001-15.238-6.433-28.992-16.711-38.722zM155.41 196.23c-22.796 0-41.342-18.546-41.342-41.342s18.546-41.342 41.342-41.342 41.342 18.546 41.342 41.342-18.546 41.342-41.342 41.342zM12.236 103.453h30.216a114.118 114.118 0 006.348 32H21.009a84.268 84.268 0 01-8.773-32zm8.773-44h28c-3.716 10.287-5.96 21.073-6.558 32H12.236a84.258 84.258 0 018.773-32zM96.977 14.32a102.16 102.16 0 0129.628 33.132H67.67c7.253-12.835 17.211-24.243 29.307-33.132zm35.347 45.133a102.03 102.03 0 017.089 32H54.46c.673-10.983 3.217-21.802 7.385-32h70.479zm49.302 32h-30.204a114.072 114.072 0 00-6.279-32h27.709a84.277 84.277 0 018.774 32zm-127.166 12h84.932c-.012.19-.031.379-.044.569-15.372 4.865-27.742 16.523-33.598 31.431H61.631a102.028 102.028 0 01-7.171-32zm48.138 44a53.488 53.488 0 00-.529 7.436 53.055 53.055 0 003.468 18.893 101.317 101.317 0 01-8.278 6.815c-12.47-8.864-22.585-20.217-29.867-33.144h35.206zm66.916-44h12.112a85.009 85.009 0 01-.467 4.739 52.946 52.946 0 00-11.645-4.739zm-3.99-56h-25.389a113.87 113.87 0 00-23.868-32.684c20.086 4.697 37.449 16.529 49.257 32.684zM78.028 14.669a118.54 118.54 0 00-23.905 32.784H28.337C40.23 31.182 57.758 19.296 78.028 14.669zM28.337 147.453h25.505a113.761 113.761 0 0024.106 32.766c-20.237-4.641-37.734-16.517-49.611-32.766z"/><path d="M161.626 155.831c2.105-1.777 3.472-4.402 3.472-7.374 0-5.35-4.337-9.688-9.688-9.688s-9.688 4.338-9.688 9.688c0 2.971 1.367 5.597 3.472 7.374l-4.807 15.177h22.045l-4.806-15.177z"/></svg>