<svg width="800" height="800" viewBox="0 0 24 24" fill="none" xmlns="http://www.w3.org/2000/svg"><g fill="#2563EB"><path d="M10 13a1 1 0 100-2 1 1 0 000 2zm5-1a1 1 0 11-2 0 1 1 0 012 0zm-6.707 3.293a1 1 0 011.404-.01c.148.132.324.235.5.323.378.189.976.394 1.803.394s1.425-.205 1.803-.394c.176-.088.352-.191.5-.323a1 1 0 011.404 1.424 2.561 2.561 0 01-.295.25 4.699 4.699 0 01-.715.438c-.622.31-1.524.605-2.697.605s-2.075-.294-2.697-.605a4.696 4.696 0 01-.716-.439 2.58 2.58 0 01-.293-.248 1 1 0 01-.001-1.415z"/><path fill-rule="evenodd" clip-rule="evenodd" d="M13.13 2.804c.165.293.275.714.067 1.267A10.06 10.06 0 0012 4.001c-4.402 0-8.14 2.844-9.476 6.795a3.305 3.305 0 00.005 6.423C3.87 21.163 7.603 24 12 24s8.131-2.837 9.47-6.781a3.304 3.304 0 00.006-6.423 10.029 10.029 0 00-6.319-6.287c.292-.977.154-1.908-.285-2.687C14.262.742 13.079 0 12 0a3.47 3.47 0 00-2.101.7 3.551 3.551 0 00-.664.652c-.351.462-.293 1.146.211 1.481.536.356 1.052.097 1.427-.325.047-.054.123-.13.227-.208.203-.153.498-.3.9-.3.256 0 .822.26 1.13.804zm6.802 12.727l1.072-.257a1.304 1.304 0 00.002-2.534l-1.072-.259-.353-1.044a8.004 8.004 0 00-15.162 0l-.353 1.044-1.072.26a1.304 1.304 0 00.002 2.533l1.072.257.355 1.044a8.004 8.004 0 0015.154 0l.355-1.044z"/></g></svg>