<svg width="800" height="800" viewBox="0 0 24 24" fill="none" xmlns="http://www.w3.org/2000/svg"><path d="M21 7V3m0 0h-4m4 0l-6 6m3.5 12C9.94 21 3 14.06 3 5.5c0-.386.014-.77.042-1.148.032-.435.048-.653.162-.851a1.06 1.06 0 01.432-.402C3.842 3 4.082 3 4.562 3h2.817c.404 0 .606 0 .779.066a1 1 0 01.396.278c.122.14.191.33.329.71l1.166 3.206c.16.442.24.662.227.872a1 1 0 01-.182.513c-.121.171-.323.292-.725.534L8 10a12.1 12.1 0 006 6l.821-1.369c.242-.402.363-.604.534-.725a1 1 0 01.513-.182c.21-.014.43.066.872.227l3.207 1.166c.38.138.569.207.709.329a.999.999 0 01.277.396c.067.173.067.375.067.779v2.817c0 .48 0 .72-.1.926a1.06 1.06 0 01-.401.432c-.198.114-.416.13-.85.162-.38.028-.763.042-1.149.042z" stroke="#000" stroke-width="2" stroke-linecap="round" stroke-linejoin="round"/></svg>