<svg width="800" height="800" viewBox="0 0 24 24" fill="none" xmlns="http://www.w3.org/2000/svg"><path d="M1.333 8.074a1 1 0 101.334 1.49l-1.334-1.49zm20 1.49a1 1 0 101.334-1.49l-1.334 1.49zM12 19a1 1 0 100 2v-2zm.01 2a1 1 0 100-2v2zm2.68-3.96a1 1 0 001.346-1.48l-1.346 1.48zm3.364-3.7a1 1 0 001.346-1.48l-1.346 1.48zm-10.09 2.22a1 1 0 001.345 1.48l-1.345-1.48zM4.6 11.86a1 1 0 101.346 1.48L4.6 11.86zM2.667 9.566A13.944 13.944 0 0112 6V4A15.944 15.944 0 001.333 8.074l1.334 1.49zM12 6c3.586 0 6.856 1.347 9.333 3.565l1.334-1.49A15.944 15.944 0 0012 4v2zm0 15h.01v-2H12v2zm0-5c1.037 0 1.98.393 2.69 1.04l1.346-1.48A5.982 5.982 0 0012 14v2zm0-5c2.332 0 4.455.886 6.054 2.34l1.346-1.48A10.964 10.964 0 0012 9v2zm-2.69 6.04A3.982 3.982 0 0112 16v-2a5.982 5.982 0 00-4.036 1.56l1.345 1.48zm-3.364-3.7A8.964 8.964 0 0112 11V9a10.964 10.964 0 00-7.4 2.86l1.346 1.48z" fill="#2563EB"/></svg>