<!DOCTYPE svg PUBLIC "-//W3C//DTD SVG 1.1//EN" "http://www.w3.org/Graphics/SVG/1.1/DTD/svg11.dtd">
<!-- Uploaded to: SVG Repo, www.svgrepo.com, Transformed by: SVG Repo Mixer Tools -->
<svg fill="#2563EB" height="800px" width="800px" version="1.1" id="Layer_1" xmlns="http://www.w3.org/2000/svg" xmlns:xlink="http://www.w3.org/1999/xlink" viewBox="0 0 128 128" xml:space="preserve">
<g id="SVGRepo_bgCarrier" stroke-width="0"/>
<g id="SVGRepo_tracerCarrier" stroke-linecap="round" stroke-linejoin="round"/>
<g id="SVGRepo_iconCarrier"> <path d="M42.5,22.6c6.3,0,11.3-5.1,11.3-11.3C53.8,5,48.8,0,42.5,0c-6.2,0-11.3,5-11.3,11.3C31.2,17.5,36.3,22.6,42.5,22.6"/> <path d="M49.8,119.4c-18.5,0-33.5-15-33.5-33.5c0-10.2,4.6-19.2,11.8-25.4l-0.6-10.5c-12,7.5-20,20.7-20,35.8 c0,23.4,19,42.4,42.4,42.4c17.2,0,32-10.4,38.6-25.2l-6-10.3C79.2,108,65.9,119.4,49.8,119.4"/> <path d="M116.4,99.5h-7.8L89.5,66.6c-1.2-2-3.3-3.1-5.5-3.2H55.8l-0.3-8.5H76c2.8-0.2,5.1-2.3,5.1-5.1c0-2.8-2.2-5-5.1-5.1H55 l-0.7-9.7c-0.4-5.9-5.5-10.6-11.5-10.2c-6,0.3-10.6,5.5-10.3,11.5l2,34.3c0.5,6,5.6,10.3,11.5,10.3h36.6l15,25.9 c1.2,2,3.5,3.1,5.8,3.1v0.1h13.1c2.8-0.2,5.1-2.3,5.1-5.1C121.5,101.7,119.3,99.6,116.4,99.5"/> </g>
</svg>